<svg xmlns="http://www.w3.org/2000/svg" width="729.3599999999999" height="112" viewBox="0 0 729.3599999999999 112"><g transform="translate(0 0)"><g data-node-id="start"><circle cx="32" cy="42" r="20" fill="white" stroke="black" stroke-width="1.5"/></g><g data-node-id="parse"><rect x="112" y="12" width="107.52" height="60" rx="6" fill="white" stroke="black" stroke-width="1.5"/></g><g data-node-id="syntax"><rect x="279.52" y="12" width="128.39999999999998" height="60" rx="6" fill="white" stroke="black" stroke-width="1.5"/></g><g data-node-id="layout"><rect x="467.91999999999996" y="12" width="121.44" height="60" rx="6" fill="white" stroke="black" stroke-width="1.5"/></g><g data-node-id="done"><circle cx="669.3599999999999" cy="42" r="20" fill="white" stroke="black" stroke-width="3"/></g><g data-edge-id="e1"><path class="diagram-edge-hit-area" d="M 52 42 L 112 42" fill="none" stroke="transparent" stroke-width="12" stroke-linecap="round" stroke-linejoin="round" pointer-events="stroke" aria-hidden="true"/><path class="diagram-edge-visible" d="M 52 42 L 112 42" fill="none" stroke="black" stroke-width="1.5" /><polygon points="112,42 105.07179676972449,46 105.07179676972449,38" fill="black"/></g><g data-edge-id="e2"><path class="diagram-edge-hit-area" d="M 219.51999999999998 42 L 279.52 42" fill="none" stroke="transparent" stroke-width="12" stroke-linecap="round" stroke-linejoin="round" pointer-events="stroke" aria-hidden="true"/><path class="diagram-edge-visible" d="M 219.51999999999998 42 L 279.52 42" fill="none" stroke="black" stroke-width="1.5" /><polygon points="279.52,42 272.59179676972445,46 272.59179676972445,38" fill="black"/></g><g data-edge-id="e3"><path class="diagram-edge-hit-area" d="M 407.91999999999996 42 L 467.91999999999996 42" fill="none" stroke="transparent" stroke-width="12" stroke-linecap="round" stroke-linejoin="round" pointer-events="stroke" aria-hidden="true"/><path class="diagram-edge-visible" d="M 407.91999999999996 42 L 467.91999999999996 42" fill="none" stroke="black" stroke-width="1.5" /><polygon points="467.91999999999996,42 460.99179676972443,46 460.99179676972443,38" fill="black"/></g><g data-edge-id="e4"><path class="diagram-edge-hit-area" d="M 589.3599999999999 42 L 649.3599999999999 42" fill="none" stroke="transparent" stroke-width="12" stroke-linecap="round" stroke-linejoin="round" pointer-events="stroke" aria-hidden="true"/><path class="diagram-edge-visible" d="M 589.3599999999999 42 L 649.3599999999999 42" fill="none" stroke="black" stroke-width="1.5" /><polygon points="649.3599999999999,42 642.4317967697244,46 642.4317967697244,38" fill="black"/></g><rect x="-15.239999999999995" y="64" width="94.47999999999999" height="13.799999999999999" fill="white" opacity="0.85"/><rect x="9.120000000000001" y="79" width="45.76" height="13.799999999999999" fill="white" opacity="0.85"/><text data-node-label-id="start" text-anchor="middle" font-size="12"><tspan x="32" y="76">Write diagram</tspan><tspan x="32" y="91">source</tspan></text><text data-node-label-id="parse" text-anchor="middle" dominant-baseline="middle" font-size="12"><tspan x="165.76" y="42">Parse source</tspan></text><text data-node-label-id="syntax" text-anchor="middle" dominant-baseline="middle" font-size="12"><tspan x="343.71999999999997" y="42">Validate syntax</tspan></text><text data-node-label-id="layout" text-anchor="middle" dominant-baseline="middle" font-size="12"><tspan x="528.64" y="42">Layout diagram</tspan></text><rect x="632.56" y="64" width="73.6" height="13.799999999999999" fill="white" opacity="0.85"/><rect x="642.9999999999999" y="79" width="52.72" height="13.799999999999999" fill="white" opacity="0.85"/><text data-node-label-id="done" text-anchor="middle" font-size="12"><tspan x="669.3599999999999" y="76">Render SVG</tspan><tspan x="669.3599999999999" y="91">preview</tspan></text></g></svg>